<?xml version="1.0" encoding="UTF-8" standalone="no"?>
<svg width="360px" height="360px" viewBox="0 0 360 360" version="1.1" xmlns="http://www.w3.org/2000/svg" xmlns:xlink="http://www.w3.org/1999/xlink" xmlns:sketch="http://www.bohemiancoding.com/sketch/ns">
    <!-- Generator: Sketch 3.0.4 (8053) - http://www.bohemiancoding.com/sketch -->
    <title>pattern 2</title>
    <desc>Created with Sketch.</desc>
    <defs></defs>
    <g id="Page-1" stroke="none" stroke-width="1" fill="none" fill-rule="evenodd" sketch:type="MSPage">
        <rect id="Rectangle-1" fill="#FFFFFF" sketch:type="MSShapeGroup" x="0" y="0" width="360" height="360"></rect>
        <path d="M30.1676964,157.205357 C29.2335393,157.205357 28.4730803,157.966629 28.4730803,158.901786 C28.4730803,159.836942 29.2335393,160.598214 30.1676964,160.598214 C31.1018535,160.598214 31.8623124,159.836942 31.8623124,158.901786 C31.8623124,157.966629 31.1018535,157.205357 30.1676964,157.205357 L30.1676964,157.205357 Z M30.1676964,158.053571 C30.6358341,158.053571 31.0150044,158.433147 31.0150044,158.901786 C31.0150044,159.370318 30.6358341,159.75 30.1676964,159.75 C29.6995587,159.75 29.3203883,159.370318 29.3203883,158.901786 C29.3203883,158.433147 29.6995587,158.053571 30.1676964,158.053571 L30.1676964,158.053571 Z M36.9461606,136 L23.3892321,136 C21.5209179,136 20,137.522439 20,139.392857 L20,159.75 C20,161.620312 21.5209179,163.142857 23.3892321,163.142857 L36.9461606,163.142857 C38.8144748,163.142857 40.3353928,161.620312 40.3353928,159.75 L40.3353928,139.392857 C40.3353928,137.522439 38.8144748,136 36.9461606,136 L36.9461606,136 Z M36.9461606,137.696429 C37.8781995,137.696429 38.6407767,138.459821 38.6407767,139.392857 L38.6407767,159.75 C38.6407767,160.683036 37.8781995,161.446429 36.9461606,161.446429 L23.3892321,161.446429 C22.4571933,161.446429 21.6946161,160.683036 21.6946161,159.75 L21.6946161,139.392857 C21.6946161,138.459821 22.4571933,137.696429 23.3892321,137.696429 L36.9461606,137.696429 L36.9461606,137.696429 Z M36.0988526,139.392857 L24.2365402,139.392857 C23.7684025,139.392857 23.3892321,139.772433 23.3892321,140.241071 L23.3892321,155.508929 C23.3892321,155.977461 23.7684025,156.357143 24.2365402,156.357143 L36.0988526,156.357143 C36.5669903,156.357143 36.9461606,155.977461 36.9461606,155.508929 L36.9461606,140.241071 C36.9461606,139.772433 36.5669903,139.392857 36.0988526,139.392857 L36.0988526,139.392857 Z M24.2365402,140.241071 L36.0988526,140.241071 L36.0988526,155.508929 L24.2365402,155.508929 L24.2365402,140.241071 Z" id="Fill-14" fill="#F1F3F5" sketch:type="MSShapeGroup"></path>
        <path d="M42.3125,277.615385 C42.3125,278.546154 41.553125,279.307692 40.625,279.307692 L20.375,279.307692 C19.446875,279.307692 18.6875,278.546154 18.6875,277.615385 L18.6875,266.192308 L27.125,266.192308 C27.2367969,266.192308 27.344375,266.147885 27.4234766,266.068558 L28.9875781,264.5 L42.3125,264.5 L42.3125,277.615385 L42.3125,277.615385 Z M18.6875,262.384615 C18.6875,261.45374 19.446875,260.692308 20.375,260.692308 L27.125,260.692308 L28.8125,262.384615 L40.625,262.384615 C41.4075781,262.384615 42.0678125,262.926048 42.2566016,263.653846 L28.8125,263.653846 C28.7007031,263.653846 28.593125,263.698269 28.5140234,263.777596 L26.9499219,265.346154 L18.6875,265.346154 L18.6875,262.384615 L18.6875,262.384615 Z M40.625,260.692308 L29.5117578,260.692308 L28.3178516,259.495952 C28.0014453,259.178644 27.5721875,259 27.125,259 L20.375,259 C18.5145313,259 17,260.51874 17,262.384615 L17,277.615385 C17,279.481154 18.5145313,281 20.375,281 L40.625,281 C42.4854687,281 44,279.481154 44,277.615385 L44,264.076923 C44,262.211048 42.4854687,260.692308 40.625,260.692308 L40.625,260.692308 Z" id="Fill-32" fill="#F1F3F5" sketch:type="MSShapeGroup"></path>
        <path d="M214.217123,80 C212.384819,80 210.639365,80.6891741 209.301677,81.9413504 C208.681024,82.5223772 208.174757,83.1987221 207.797705,83.9387891 C207.028773,83.5847656 206.184643,83.3928571 205.320388,83.3928571 C202.049779,83.3928571 199.389232,86.05625 199.389232,89.3303571 C199.389232,89.7025112 199.424184,90.0714844 199.493027,90.434096 C197.466902,91.103125 196,93.0178627 196,95.2678571 C196,98.0743862 198.280318,100.357143 201.083848,100.357143 L217.182701,100.357143 C220.45331,100.357143 223.113857,97.693644 223.113857,94.4196429 C223.113857,93.1876116 222.739982,92.0053069 222.03248,91.0012333 C221.717917,90.5549665 221.348279,90.1584263 220.933098,89.8191406 C221.254016,88.9942522 221.419241,88.1142299 221.419241,87.2098214 C221.419241,83.233817 218.188879,80 214.217123,80 L214.217123,80 Z M214.217123,81.6964286 C217.258959,81.6964286 219.724625,84.1646261 219.724625,87.2098214 C219.724625,88.4205413 219.333804,89.5392299 218.672904,90.4489397 C220.277493,91.0522321 221.419241,92.6023437 221.419241,94.4196429 C221.419241,96.7616685 219.52233,98.6607143 217.182701,98.6607143 L201.083848,98.6607143 C199.212357,98.6607143 197.694616,97.1413504 197.694616,95.2678571 C197.694616,93.3931975 199.212357,91.875 201.083848,91.875 C201.415357,91.875 201.736275,91.9237723 202.039188,92.0127288 C201.441836,91.281144 201.083848,90.3482143 201.083848,89.3303571 C201.083848,86.9882254 202.980759,85.0892857 205.320388,85.0892857 C206.716328,85.0892857 207.954457,85.7656306 208.725508,86.8078739 C208.932039,83.950452 211.310856,81.6964286 214.217123,81.6964286 L214.217123,81.6964286 Z" id="Fill-34" fill="#F1F3F5" sketch:type="MSShapeGroup"></path>
        <path d="M218.877317,321.392857 L200.23654,321.392857 C199.768402,321.392857 199.389232,321.772433 199.389232,322.241071 L199.389232,334.116071 C199.389232,334.584604 199.768402,334.964286 200.23654,334.964286 L218.877317,334.964286 C219.345455,334.964286 219.724625,334.584604 219.724625,334.116071 L219.724625,322.241071 C219.724625,321.772433 219.345455,321.392857 218.877317,321.392857 L218.877317,321.392857 Z M200.23654,322.241071 L218.877317,322.241071 L218.877317,334.116071 L200.23654,334.116071 L200.23654,322.241071 Z M221.419241,334.964286 C221.419241,335.897321 220.656664,336.660714 219.724625,336.660714 L199.389232,336.660714 C198.457193,336.660714 197.694616,335.897321 197.694616,334.964286 L197.694616,321.392857 C197.694616,320.459821 198.457193,319.696429 199.389232,319.696429 L219.724625,319.696429 C220.656664,319.696429 221.419241,320.459821 221.419241,321.392857 L221.419241,334.964286 L221.419241,334.964286 Z M216.58323,339.45346 C216.91368,339.783203 216.801412,340.053571 216.335393,340.053571 L202.778464,340.053571 C202.312445,340.053571 202.200177,339.783203 202.530627,339.45346 L203.625772,338.357143 L215.488085,338.357143 L216.58323,339.45346 L216.58323,339.45346 Z M219.724625,318 L199.389232,318 C197.520918,318 196,319.522545 196,321.392857 L196,334.964286 C196,336.835658 197.520918,338.357143 199.389232,338.357143 L201.235305,338.357143 C200.657017,338.998605 200.489673,339.800167 200.790468,340.526345 C201.107149,341.292919 201.850662,341.75 202.778464,341.75 L216.335393,341.75 C217.263195,341.75 218.006708,341.292919 218.323389,340.526345 C218.624184,339.800167 218.45684,338.998605 217.878553,338.357143 L219.724625,338.357143 C221.592939,338.357143 223.113857,336.835658 223.113857,334.964286 L223.113857,321.392857 C223.113857,319.522545 221.592939,318 219.724625,318 L219.724625,318 Z" id="Fill-44" fill="#F1F3F5" sketch:type="MSShapeGroup"></path>
        <path d="M221.419241,218.660714 L197.694616,218.660714 L197.694616,217.8125 L201.083848,215.267857 L218.030009,215.267857 L221.419241,217.8125 L221.419241,218.660714 L221.419241,218.660714 Z M202.778464,201.696429 L216.335393,201.696429 C217.267432,201.696429 218.030009,202.459821 218.030009,203.392857 L218.030009,214.419643 L201.083848,214.419643 L201.083848,203.392857 C201.083848,202.459821 201.846425,201.696429 202.778464,201.696429 L202.778464,201.696429 Z M222.436011,216.455357 L219.724625,214.419643 L219.724625,203.392857 C219.724625,201.522439 218.203707,200 216.335393,200 L202.778464,200 C200.91015,200 199.389232,201.522439 199.389232,203.392857 L199.389232,214.419643 L196.677846,216.455357 C196.251015,216.775558 196,217.278125 196,217.8125 L196,218.660714 C196,219.597991 196.758341,220.357143 197.694616,220.357143 L221.419241,220.357143 C222.355516,220.357143 223.113857,219.597991 223.113857,218.660714 L223.113857,217.8125 C223.113857,217.279185 222.862842,216.775558 222.436011,216.455357 L222.436011,216.455357 Z M215.488085,203.392857 L203.625772,203.392857 C203.157635,203.392857 202.778464,203.772433 202.778464,204.241071 L202.778464,211.875 C202.778464,212.343532 203.157635,212.723214 203.625772,212.723214 L215.488085,212.723214 C215.956222,212.723214 216.335393,212.343532 216.335393,211.875 L216.335393,204.241071 C216.335393,203.772433 215.956222,203.392857 215.488085,203.392857 L215.488085,203.392857 Z M203.625772,204.241071 L215.488085,204.241071 L215.488085,211.875 L203.625772,211.875 L203.625772,204.241071 Z" id="Fill-51" fill="#F1F3F5" sketch:type="MSShapeGroup"></path>
        <path d="M269.556929,16 C269.070786,16 268.576169,16.0265067 268.086849,16.0795201 C267.380406,16.1558594 266.796823,16.6647879 266.624184,17.3550223 L265.950574,20.0543583 C265.759929,20.1264565 265.571403,20.2050223 265.384996,20.2887835 L263.001942,18.8574219 C262.732921,18.6950949 262.431174,18.6155748 262.130274,18.6155748 C261.752268,18.6155748 261.376169,18.7418527 261.068067,18.9899554 C260.303266,19.605971 259.602118,20.3078683 258.986761,21.0733817 C258.541924,21.6279018 258.488967,22.3997768 258.854369,23.0094308 L260.284201,25.3950335 C260.20053,25.5816406 260.122154,25.7702623 260.050132,25.9612165 L257.353575,26.6355469 C256.664078,26.8082645 256.155799,27.3925781 256.079435,28.0997768 C256.026478,28.5896205 256,29.0847656 256,29.5714286 C256,30.0580915 256.026478,30.5532366 256.079435,31.0430804 C256.155799,31.750279 256.664078,32.3344866 257.353575,32.5072042 L260.050132,33.1816406 C260.122154,33.3724888 260.20053,33.5612165 260.284201,33.7478237 L258.854369,36.1334263 C258.488967,36.7420201 258.541924,37.5149554 258.986761,38.0684152 C259.602118,38.8349888 260.303266,39.5357199 261.068067,40.1529018 C261.376169,40.4010045 261.752268,40.5271763 262.130274,40.5271763 C262.431174,40.5271763 262.732921,40.446596 263.001942,40.2854353 L265.384996,38.8540737 C265.571403,38.9378348 265.759929,39.0162946 265.950574,39.0883929 L266.624184,41.7878348 C266.796823,42.4779632 267.380406,42.9869978 268.086849,43.0633371 C268.576169,43.1163504 269.070786,43.1428571 269.556929,43.1428571 C270.043071,43.1428571 270.537688,43.1163504 271.027008,43.0633371 C271.733451,42.9869978 272.31714,42.4779632 272.489673,41.7878348 L273.163283,39.0883929 C273.353928,39.0162946 273.542454,38.9378348 273.728861,38.8540737 L276.111915,40.2854353 C276.381995,40.446596 276.682789,40.5271763 276.983583,40.5271763 C277.361695,40.5271763 277.737688,40.4010045 278.045896,40.1529018 C278.81165,39.5367801 279.511739,38.8349888 280.127096,38.0693694 C280.571933,37.5149554 280.62489,36.7430804 280.259488,36.1334263 L278.829656,33.7478237 C278.913327,33.5612165 278.991703,33.3724888 279.063725,33.1816406 L281.760282,32.5072042 C282.449779,32.3344866 282.958164,31.750279 283.034422,31.0430804 C283.087379,30.5532366 283.113857,30.0580915 283.113857,29.5714286 C283.113857,29.0847656 283.087379,28.5896205 283.034422,28.0997768 C282.958164,27.3925781 282.449779,26.8082645 281.760282,26.6355469 L279.063725,25.9612165 C278.991703,25.7702623 278.913327,25.5816406 278.829656,25.3950335 L280.259488,23.0094308 C280.623831,22.3997768 280.571933,21.6279018 280.127096,21.0733817 C279.511739,20.3078683 278.81165,19.6070312 278.045896,18.9899554 C277.737688,18.7418527 277.361695,18.6155748 276.983583,18.6155748 C276.682789,18.6155748 276.381995,18.6950949 276.111915,18.8574219 L273.728861,20.2887835 C273.542454,20.2050223 273.353928,20.1264565 273.163283,20.0543583 L272.489673,17.3550223 C272.31714,16.6647879 271.733451,16.1558594 271.027008,16.0795201 C270.537688,16.0265067 270.043071,16 269.556929,16 L269.556929,16 Z M269.556929,17.6964286 C269.992233,17.6964286 270.422242,17.7207087 270.845896,17.7663002 L271.747326,21.3766183 C272.472727,21.5706473 273.160106,21.8590402 273.794528,22.2280134 L276.983583,20.3121094 C277.655075,20.852846 278.266196,21.4646205 278.806355,22.1368304 L276.892498,25.3292969 C277.261077,25.9642913 277.549162,26.6525112 277.742983,27.3787946 L281.349338,28.2810826 C281.394987,28.7051897 281.419241,29.1356585 281.419241,29.5714286 C281.419241,30.0071987 281.394987,30.4376674 281.349338,30.8616685 L277.742983,31.7640625 C277.549162,32.490346 277.261077,33.1784598 276.892498,33.8135603 L278.806355,37.0060268 C278.266196,37.6782366 277.655075,38.2899051 276.983583,38.8307478 L273.794528,36.9148438 C273.160106,37.283817 272.472727,37.5722098 271.747326,37.7662388 L270.845896,41.3764509 C270.422242,41.4220424 269.992233,41.4464286 269.556929,41.4464286 C269.121624,41.4464286 268.691615,41.4220424 268.26902,41.3764509 L267.366637,37.7662388 C266.641236,37.5722098 265.953751,37.283817 265.319329,36.9148438 L262.130274,38.8307478 C261.458782,38.2899051 260.847661,37.6782366 260.307502,37.0060268 L262.221359,33.8135603 C261.85278,33.1773996 261.564695,32.490346 261.370874,31.7640625 L257.764519,30.8616685 C257.718976,30.4376674 257.694616,30.0071987 257.694616,29.5714286 C257.694616,29.1356585 257.718976,28.7051897 257.764519,28.2810826 L261.370874,27.3787946 C261.564695,26.6525112 261.85278,25.9642913 262.221359,25.3292969 L260.307502,22.1368304 C260.847661,21.4646205 261.458782,20.852846 262.130274,20.3121094 L265.319329,22.2280134 C265.953751,21.8590402 266.641236,21.5706473 267.366637,21.3766183 L268.26902,17.7663002 C268.691615,17.7207087 269.121624,17.6964286 269.556929,17.6964286 L269.556929,17.6964286 Z M269.556929,24.4821429 C266.753398,24.4821429 264.47308,26.7648996 264.47308,29.5714286 C264.47308,32.3779576 266.753398,34.6607143 269.556929,34.6607143 C272.360565,34.6607143 274.640777,32.3779576 274.640777,29.5714286 C274.640777,26.7648996 272.360565,24.4821429 269.556929,24.4821429 L269.556929,24.4821429 Z M269.556929,25.3303571 C271.896558,25.3303571 273.793469,27.2291908 273.793469,29.5714286 C273.793469,31.9135603 271.896558,33.8125 269.556929,33.8125 C267.217299,33.8125 265.320388,31.9135603 265.320388,29.5714286 C265.320388,27.2291908 267.217299,25.3303571 269.556929,25.3303571 L269.556929,25.3303571 Z" id="Fill-55" fill="#F1F3F5" sketch:type="MSShapeGroup"></path>
        <path d="M272.896734,278.901786 C272.896734,280.307701 271.759223,281.446429 270.35481,281.446429 C268.950397,281.446429 267.812886,280.307701 267.812886,278.901786 L267.812886,264.996373 C266.538747,264.163002 265.694616,262.723158 265.694616,261.089286 C265.694616,259.853013 266.178641,258.727963 266.965578,257.893638 L266.965578,261.9375 L273.744042,261.9375 L273.744042,257.893638 C274.531086,258.727963 275.015004,259.853013 275.015004,261.089286 C275.015004,262.723158 274.170874,264.163002 272.896734,264.996373 L272.896734,278.901786 L272.896734,278.901786 Z M276.70962,261.089286 C276.70962,259.00798 275.710856,257.160993 274.167696,256 L272.049426,256 L272.049426,260.241071 L268.660194,260.241071 L268.660194,256 L266.541924,256 C264.99887,257.160993 264,259.00798 264,261.089286 C264,262.973382 264.818711,264.664509 266.11827,265.828683 L266.11827,278.901786 C266.11827,281.240737 268.018358,283.142857 270.35481,283.142857 C272.691262,283.142857 274.59135,281.240737 274.59135,278.901786 L274.59135,265.828683 C275.890909,264.664509 276.70962,262.973382 276.70962,261.089286 L276.70962,261.089286 Z M270.35481,277.205357 C269.420653,277.205357 268.660194,277.966629 268.660194,278.901786 C268.660194,279.836836 269.420653,280.598214 270.35481,280.598214 C271.288861,280.598214 272.049426,279.836836 272.049426,278.901786 C272.049426,277.966629 271.288861,277.205357 270.35481,277.205357 L270.35481,277.205357 Z M270.35481,278.053571 C270.822948,278.053571 271.202118,278.433147 271.202118,278.901786 C271.202118,279.370318 270.822948,279.75 270.35481,279.75 C269.886673,279.75 269.507502,279.370318 269.507502,278.901786 C269.507502,278.433147 269.886673,278.053571 270.35481,278.053571 L270.35481,278.053571 Z" id="Fill-62" fill="#F1F3F5" sketch:type="MSShapeGroup"></path>
        <path d="M101.419241,89.5714286 C101.419241,92.9133929 99.2130627,95.9966518 95.4903089,98.4776786 C93.9099735,99.5305246 92.0554281,100.474163 89.9805825,101.284208 L89.9805825,77.7875056 L101.419241,80.2410714 L101.419241,89.5714286 L101.419241,89.5714286 Z M83.623654,98.4776786 C79.9007944,95.9966518 77.6946161,92.9133929 77.6946161,89.5714286 L77.6946161,80.2410714 L89.1332745,77.7875056 L89.1332745,101.284208 C87.0584289,100.474163 85.2049426,99.5305246 83.623654,98.4776786 L83.623654,98.4776786 Z M101.774051,78.5827065 L89.9117387,76.0380636 C89.7952339,76.0126172 89.6766108,76 89.5569285,76 C89.4383054,76 89.3186231,76.0126172 89.2021183,76.0380636 L77.3398058,78.5827065 C76.5581642,78.7502288 76,79.4416295 76,80.2410714 L76,89.5714286 C76,91.5529632 76.6259488,93.4806362 77.8609003,95.3011161 C78.9909974,96.9656306 80.6146514,98.5105469 82.6852604,99.8898493 C84.478376,101.084877 86.5902913,102.143025 88.9616946,103.034604 C89.1533981,103.106702 89.3546337,103.142857 89.5569285,103.142857 C89.7592233,103.142857 89.960459,103.106702 90.1532215,103.034604 C92.5246249,102.143025 94.635481,101.084877 96.4297617,99.8898493 C98.5002648,98.5105469 100.12286,96.9656306 101.253063,95.3011161 C102.487908,93.4806362 103.113857,91.5529632 103.113857,89.5714286 L103.113857,80.2410714 C103.113857,79.4416295 102.555693,78.7502288 101.774051,78.5827065 L101.774051,78.5827065 Z" id="Fill-102" fill="#F1F3F5" sketch:type="MSShapeGroup"></path>
        <path d="M331.47308,209.571429 L330.625772,210.419643 L330.625772,211.267857 L331.47308,212.964286 L329.778464,214.660714 L331.47308,217.205357 L330.625772,218.053571 L331.47308,219.75 L329.778464,221.446429 L328.083848,220.598214 L328.083848,206.760658 C326.071492,206.120257 324.694616,204.39308 324.694616,202.361607 C324.694616,199.785156 326.970697,197.696429 329.778464,197.696429 C332.586231,197.696429 334.862312,199.785156 334.862312,202.361607 C334.862312,204.39308 333.485437,206.120257 331.47308,206.760658 L331.47308,209.571429 L331.47308,209.571429 Z M333.167696,209.571429 L333.167696,207.867578 C335.180053,206.76596 336.556929,204.711161 336.556929,202.361607 C336.556929,198.854241 333.516152,196 329.778464,196 C326.040777,196 323,198.854241 323,202.361607 C323,204.711161 324.376876,206.76596 326.389232,207.867578 L326.389232,220.598214 C326.389232,221.240737 326.751456,221.828125 327.326567,222.115458 L329.021183,222.963672 C329.261606,223.084542 329.521094,223.142857 329.778464,223.142857 C330.218005,223.142857 330.651192,222.972154 330.976452,222.645592 L332.670962,220.949163 C333.186867,220.432706 333.315022,219.643973 332.988703,218.990848 L332.688014,218.388616 C333.24406,217.816071 333.326567,216.930748 332.882895,216.263839 L331.959223,214.877009 L332.670962,214.163449 C333.186867,213.647098 333.315022,212.858259 332.988703,212.205134 L332.405119,211.036719 L332.670962,210.770592 C332.988703,210.452511 333.167696,210.020982 333.167696,209.571429 L333.167696,209.571429 Z M329.778464,199.392857 C328.843248,199.392857 328.083848,200.152009 328.083848,201.089286 C328.083848,202.026563 328.843248,202.785714 329.778464,202.785714 C330.71474,202.785714 331.47308,202.026563 331.47308,201.089286 C331.47308,200.152009 330.71474,199.392857 329.778464,199.392857 L329.778464,199.392857 Z M329.778464,200.241071 C330.245543,200.241071 330.625772,200.621708 330.625772,201.089286 C330.625772,201.556864 330.245543,201.9375 329.778464,201.9375 C329.311386,201.9375 328.931156,201.556864 328.931156,201.089286 C328.931156,200.621708 329.311386,200.241071 329.778464,200.241071 L329.778464,200.241071 Z" id="Fill-104" fill="#F1F3F5" sketch:type="MSShapeGroup"></path>
        <path d="M40.9226125,40.9491629 C40.5920565,41.2809208 40.1589762,41.4464286 39.7246249,41.4464286 C39.2914387,41.4464286 38.8572992,41.2809208 38.5267432,40.9491629 L32.0596646,34.4751674 C32.9853486,33.8146205 33.7966461,33.0034096 34.4554281,32.0757812 L40.9226125,38.550731 C41.584466,39.2124442 41.584466,40.2875558 40.9226125,40.9491629 L40.9226125,40.9491629 Z M17.6946161,26.1785714 C17.6946161,21.5017299 21.4958517,17.6964286 26.1676964,17.6964286 C30.839541,17.6964286 34.6407767,21.5017299 34.6407767,26.1785714 C34.6407767,30.8553069 30.839541,34.6607143 26.1676964,34.6607143 C21.4958517,34.6607143 17.6946161,30.8553069 17.6946161,26.1785714 L17.6946161,26.1785714 Z M42.1214475,37.3506138 L35.3440424,30.5670201 C35.9795234,29.2374442 36.3353928,27.7498884 36.3353928,26.1785714 C36.3353928,20.5569252 31.7832304,16 26.1676964,16 C20.5521624,16 16,20.5569252 16,26.1785714 C16,31.8001116 20.5521624,36.3571429 26.1676964,36.3571429 C27.7373345,36.3571429 29.223301,36.0008929 30.5514563,35.3647321 L37.3278023,42.1493862 C37.9897617,42.8120536 38.8572992,43.1428571 39.7246249,43.1428571 C40.5920565,43.1428571 41.4594881,42.8120536 42.1214475,42.1493862 C43.4453663,40.8240513 43.4453663,38.6759487 42.1214475,37.3506138 L42.1214475,37.3506138 Z" id="Fill-107" fill="#F1F3F5" sketch:type="MSShapeGroup"></path>
        <path d="M97.7934687,204.482143 C97.7934687,202.60865 96.2757282,201.089286 94.4042365,201.089286 L86.7784643,201.852679 L86.7784643,198.544643 L92.7096205,198.544643 C95.9856311,198.544643 98.6407767,201.202734 98.6407767,204.482143 L97.7934687,204.482143 L97.7934687,204.482143 Z M91.8623124,209.571429 L88.4730803,209.571429 L88.4730803,203.387946 L91.8623124,203.048555 L91.8623124,209.571429 L91.8623124,209.571429 Z M87.6257723,221.446429 L88.4128155,210.419643 L91.9225772,210.419643 L92.7096205,221.446429 L87.6257723,221.446429 L87.6257723,221.446429 Z M81.6946161,197.696429 L85.9311562,197.696429 L85.9311562,202.785714 L81.6946161,202.785714 L81.6946161,197.696429 Z M92.7096205,196.848214 L87.3991174,196.848214 C87.105737,196.341406 86.5581642,196 85.9311562,196 L81.6946161,196 C80.7583407,196 80,196.759152 80,197.696429 L80,202.785714 C80,203.722991 80.7583407,204.482143 81.6946161,204.482143 L85.9311562,204.482143 C86.2404237,204.482143 86.5295675,204.398382 86.7784643,204.254185 L86.7784643,209.510993 L85.9353928,221.325558 C85.9015004,221.795257 86.0646072,222.257427 86.3855252,222.602015 C86.7064431,222.946602 87.1556222,223.142857 87.6257723,223.142857 L92.7096205,223.142857 C93.1798764,223.142857 93.6289497,222.946602 93.9498676,222.602015 C94.2697264,222.257427 94.4338923,221.795257 94.4,221.325558 L93.5569285,209.510993 L93.5569285,202.879018 L94.4741395,202.786775 C95.3765225,202.823884 96.0988526,203.570206 96.0988526,204.482143 C96.0988526,205.41942 96.8571933,206.178571 97.7934687,206.178571 L98.6407767,206.178571 C99.5770521,206.178571 100.335393,205.41942 100.335393,204.482143 C100.335393,200.272879 96.9143866,196.848214 92.7096205,196.848214 L92.7096205,196.848214 Z" id="Fill-121" fill="#F1F3F5" sketch:type="MSShapeGroup"></path>
        <path d="M341.419241,320.241071 L338.877317,317.696429 L337.533274,319.041802 L340.075199,321.586445 L341.419241,320.241071 L341.419241,320.241071 Z M338.877317,322.785714 L336.335393,320.241071 L335.064431,321.513393 L337.606355,324.058036 L338.877317,322.785714 L338.877317,322.785714 Z M336.759047,324.90625 L334.217123,322.361607 L327.437599,329.148382 L329.979523,331.693025 L336.759047,324.90625 L336.759047,324.90625 Z M328.708561,332.965346 L329.132215,332.541239 L326.590291,329.996596 L326.166637,330.420703 L325.319329,333.81356 L328.708561,332.965346 L328.708561,332.965346 Z M342.617123,321.441295 L329.574934,334.497433 L322.990291,336.145089 L324.636187,329.553404 L337.678376,316.49716 C338.009885,316.165402 338.443071,316 338.877317,316 C339.310503,316 339.744748,316.165402 340.075199,316.49716 L342.617123,319.041802 C343.279082,319.70447 343.279082,320.778627 342.617123,321.441295 L342.617123,321.441295 Z M336.335393,343.142857 L319.389232,343.142857 C317.520918,343.142857 316,341.620312 316,339.75 L316,322.785714 C316,320.915296 317.520918,319.392857 319.389232,319.392857 L327.862312,319.392857 C328.33045,319.392857 328.70962,319.772433 328.70962,320.241071 C328.70962,320.70971 328.33045,321.089286 327.862312,321.089286 L319.389232,321.089286 C318.455075,321.089286 317.694616,321.850558 317.694616,322.785714 L317.694616,339.75 C317.694616,340.685156 318.455075,341.446429 319.389232,341.446429 L336.335393,341.446429 C337.26955,341.446429 338.030009,340.685156 338.030009,339.75 L338.030009,331.267857 C338.030009,330.799219 338.409179,330.419643 338.877317,330.419643 C339.345455,330.419643 339.724625,330.799219 339.724625,331.267857 L339.724625,339.75 C339.724625,341.620312 338.203813,343.142857 336.335393,343.142857 L336.335393,343.142857 Z" id="Fill-123" fill="#F1F3F5" sketch:type="MSShapeGroup"></path>
        <path d="M270.167696,161.446429 C265.488438,161.446429 261.694616,159.926959 261.694616,158.053571 L261.694616,153.911105 C263.155163,155.367807 266.359047,156.357143 270.167696,156.357143 C273.976346,156.357143 277.180229,155.367807 278.640777,153.911105 L278.640777,158.053571 C278.640777,159.926959 274.846955,161.446429 270.167696,161.446429 L270.167696,161.446429 Z M270.167696,144.482143 C265.488438,144.482143 261.694616,142.962673 261.694616,141.089286 C261.694616,139.215792 265.488438,137.696429 270.167696,137.696429 C274.846955,137.696429 278.640777,139.215792 278.640777,141.089286 C278.640777,142.962673 274.846955,144.482143 270.167696,144.482143 L270.167696,144.482143 Z M270.167696,149.571429 C265.099735,149.571429 261.694616,147.816685 261.694616,146.178571 L261.694616,142.939453 C262.203001,143.450502 262.932745,143.904297 263.861606,144.276451 C265.5594,144.956083 267.79947,145.330357 270.167696,145.330357 C272.535922,145.330357 274.775993,144.956083 276.473786,144.276451 C277.402648,143.904297 278.132392,143.450502 278.640777,142.939453 L278.640777,146.178571 C278.640777,147.816685 275.235658,149.571429 270.167696,149.571429 L270.167696,149.571429 Z M261.694616,147.973605 C263.155163,149.430307 266.359047,150.419643 270.167696,150.419643 C273.976346,150.419643 277.180229,149.430307 278.640777,147.973605 L278.640777,152.116071 C278.640777,153.754185 275.235658,155.508929 270.167696,155.508929 C265.099735,155.508929 261.694616,153.754185 261.694616,152.116071 L261.694616,147.973605 L261.694616,147.973605 Z M276.78835,137.115402 C274.992056,136.39548 272.641836,136 270.167696,136 C267.693557,136 265.342277,136.39548 263.547043,137.115402 C260.460724,138.350508 260,140.135045 260,141.089286 L260,158.053571 C260,159.007812 260.460724,160.792243 263.547043,162.027349 C265.342277,162.747377 267.693557,163.142857 270.167696,163.142857 C272.641836,163.142857 274.992056,162.747377 276.78835,162.027349 C279.874669,160.792243 280.335393,159.007812 280.335393,158.053571 L280.335393,141.089286 C280.335393,140.135045 279.874669,138.350508 276.78835,137.115402 L276.78835,137.115402 Z" id="Fill-160" fill="#F1F3F5" sketch:type="MSShapeGroup"></path>
        <path d="M81.0838482,321.089286 L98.0300088,321.089286 L98.0300088,338.053571 L81.0838482,338.053571 L81.0838482,321.089286 Z M102.690203,327.026786 C102.924272,327.026786 103.113857,326.836892 103.113857,326.602679 C103.113857,326.368359 102.924272,326.178571 102.690203,326.178571 L99.7246249,326.178571 L99.7246249,324.058036 L102.690203,324.058036 C102.924272,324.058036 103.113857,323.868248 103.113857,323.633929 C103.113857,323.399609 102.924272,323.209821 102.690203,323.209821 L99.7246249,323.209821 L99.7246249,321.089286 C99.7246249,320.152009 98.9662842,319.392857 98.0300088,319.392857 L95.9117387,319.392857 L95.9117387,316.424107 C95.9117387,316.189788 95.7221536,316 95.4880847,316 C95.2540159,316 95.0644307,316.189788 95.0644307,316.424107 L95.0644307,319.392857 L92.9461606,319.392857 L92.9461606,316.424107 C92.9461606,316.189788 92.7565755,316 92.5225066,316 C92.2884378,316 92.0988526,316.189788 92.0988526,316.424107 L92.0988526,319.392857 L89.9805825,319.392857 L89.9805825,316.424107 C89.9805825,316.189788 89.7909974,316 89.5569285,316 C89.3228597,316 89.1332745,316.189788 89.1332745,316.424107 L89.1332745,319.392857 L87.0150044,319.392857 L87.0150044,316.424107 C87.0150044,316.189788 86.8254192,316 86.5913504,316 C86.3572816,316 86.1676964,316.189788 86.1676964,316.424107 L86.1676964,319.392857 L84.0494263,319.392857 L84.0494263,316.424107 C84.0494263,316.189788 83.8598411,316 83.6257723,316 C83.3917034,316 83.2021183,316.189788 83.2021183,316.424107 L83.2021183,319.392857 L81.0838482,319.392857 C80.1475728,319.392857 79.3892321,320.152009 79.3892321,321.089286 L79.3892321,323.209821 L76.423654,323.209821 C76.1895852,323.209821 76,323.399609 76,323.633929 C76,323.868248 76.1895852,324.058036 76.423654,324.058036 L79.3892321,324.058036 L79.3892321,326.178571 L76.423654,326.178571 C76.1895852,326.178571 76,326.368359 76,326.602679 C76,326.836892 76.1895852,327.026786 76.423654,327.026786 L79.3892321,327.026786 L79.3892321,329.147321 L76.423654,329.147321 C76.1895852,329.147321 76,329.337109 76,329.571429 C76,329.805748 76.1895852,329.995536 76.423654,329.995536 L79.3892321,329.995536 L79.3892321,332.116071 L76.423654,332.116071 C76.1895852,332.116071 76,332.305859 76,332.540179 C76,332.774498 76.1895852,332.964286 76.423654,332.964286 L79.3892321,332.964286 L79.3892321,335.084821 L76.423654,335.084821 C76.1895852,335.084821 76,335.274609 76,335.508929 C76,335.743142 76.1895852,335.933036 76.423654,335.933036 L79.3892321,335.933036 L79.3892321,338.053571 C79.3892321,338.990848 80.1475728,339.75 81.0838482,339.75 L83.2021183,339.75 L83.2021183,342.71875 C83.2021183,342.953069 83.3917034,343.142857 83.6257723,343.142857 C83.8598411,343.142857 84.0494263,342.953069 84.0494263,342.71875 L84.0494263,339.75 L86.1676964,339.75 L86.1676964,342.71875 C86.1676964,342.953069 86.3572816,343.142857 86.5913504,343.142857 C86.8254192,343.142857 87.0150044,342.953069 87.0150044,342.71875 L87.0150044,339.75 L89.1332745,339.75 L89.1332745,342.71875 C89.1332745,342.953069 89.3228597,343.142857 89.5569285,343.142857 C89.7909974,343.142857 89.9805825,342.953069 89.9805825,342.71875 L89.9805825,339.75 L92.0988526,339.75 L92.0988526,342.71875 C92.0988526,342.953069 92.2884378,343.142857 92.5225066,343.142857 C92.7565755,343.142857 92.9461606,342.953069 92.9461606,342.71875 L92.9461606,339.75 L95.0644307,339.75 L95.0644307,342.71875 C95.0644307,342.953069 95.2540159,343.142857 95.4880847,343.142857 C95.7221536,343.142857 95.9117387,342.953069 95.9117387,342.71875 L95.9117387,339.75 L98.0300088,339.75 C98.9662842,339.75 99.7246249,338.990848 99.7246249,338.053571 L99.7246249,335.933036 L102.690203,335.933036 C102.924272,335.933036 103.113857,335.743142 103.113857,335.508929 C103.113857,335.274609 102.924272,335.084821 102.690203,335.084821 L99.7246249,335.084821 L99.7246249,332.964286 L102.690203,332.964286 C102.924272,332.964286 103.113857,332.774498 103.113857,332.540179 C103.113857,332.305859 102.924272,332.116071 102.690203,332.116071 L99.7246249,332.116071 L99.7246249,329.995536 L102.690203,329.995536 C102.924272,329.995536 103.113857,329.805748 103.113857,329.571429 C103.113857,329.337109 102.924272,329.147321 102.690203,329.147321 L99.7246249,329.147321 L99.7246249,327.026786 L102.690203,327.026786 L102.690203,327.026786 Z M83.6257723,323.633929 L95.4880847,323.633929 L95.4880847,335.508929 L83.6257723,335.508929 L83.6257723,323.633929 Z M83.6257723,336.357143 L95.4880847,336.357143 C95.9562224,336.357143 96.3353928,335.977567 96.3353928,335.508929 L96.3353928,323.633929 C96.3353928,323.16529 95.9562224,322.785714 95.4880847,322.785714 L83.6257723,322.785714 C83.1576346,322.785714 82.7784643,323.16529 82.7784643,323.633929 L82.7784643,335.508929 C82.7784643,335.977567 83.1576346,336.357143 83.6257723,336.357143 L83.6257723,336.357143 Z" id="Fill-162" fill="#F1F3F5" sketch:type="MSShapeGroup"></path>
        <path d="M145.320388,35.5089286 L147.862312,35.5089286 L147.862312,39.75 L145.320388,39.75 L145.320388,35.5089286 Z M145.320388,40.5982143 L147.862312,40.5982143 C148.33045,40.5982143 148.70962,40.2185324 148.70962,39.75 L148.70962,35.5089286 C148.70962,35.0402902 148.33045,34.6607143 147.862312,34.6607143 L145.320388,34.6607143 C144.852251,34.6607143 144.47308,35.0402902 144.47308,35.5089286 L144.47308,39.75 C144.47308,40.2185324 144.852251,40.5982143 145.320388,40.5982143 L145.320388,40.5982143 Z M161.419241,39.75 C161.419241,40.6830357 160.656664,41.4464286 159.724625,41.4464286 L156.335393,41.4464286 L156.335393,33.8125 C156.335393,33.3438616 155.956222,32.9642857 155.488085,32.9642857 L143.625772,32.9642857 C143.157635,32.9642857 142.778464,33.3438616 142.778464,33.8125 L142.778464,41.4464286 L139.389232,41.4464286 C138.457193,41.4464286 137.694616,40.6830357 137.694616,39.75 L137.694616,19.3928571 C137.694616,18.4598214 138.457193,17.6964286 139.389232,17.6964286 L140.23654,17.6964286 L140.23654,30.4196429 C140.23654,30.8882813 140.615711,31.2678571 141.083848,31.2678571 L158.030009,31.2678571 C158.498147,31.2678571 158.877317,30.8882813 158.877317,30.4196429 L158.877317,17.6964286 L159.724625,17.6964286 C160.656664,17.6964286 161.419241,18.4598214 161.419241,19.3928571 L161.419241,39.75 L161.419241,39.75 Z M143.625772,33.8125 L155.488085,33.8125 L155.488085,41.4464286 L143.625772,41.4464286 L143.625772,33.8125 Z M141.083848,17.6964286 L158.030009,17.6964286 L158.030009,30.4196429 L141.083848,30.4196429 L141.083848,17.6964286 Z M159.724625,16 L139.389232,16 C137.520918,16 136,17.5225446 136,19.3928571 L136,39.75 C136,41.6203125 137.520918,43.1428571 139.389232,43.1428571 L159.724625,43.1428571 C161.592939,43.1428571 163.113857,41.6203125 163.113857,39.75 L163.113857,19.3928571 C163.113857,17.5225446 161.592939,16 159.724625,16 L159.724625,16 Z" id="Fill-182" fill="#F1F3F5" sketch:type="MSShapeGroup"></path>
        <path d="M332.59135,79.8169643 C332.59135,80.0512835 332.401765,80.2410714 332.167696,80.2410714 L328.778464,80.2410714 C328.544395,80.2410714 328.35481,80.0512835 328.35481,79.8169643 C328.35481,79.5826451 328.544395,79.3928571 328.778464,79.3928571 L332.167696,79.3928571 C332.401765,79.3928571 332.59135,79.5826451 332.59135,79.8169643 L332.59135,79.8169643 Z M330.47308,98.0535714 C330.941218,98.0535714 331.320388,98.4331473 331.320388,98.9017857 C331.320388,99.3703181 330.941218,99.75 330.47308,99.75 C330.004943,99.75 329.625772,99.3703181 329.625772,98.9017857 C329.625772,98.4331473 330.004943,98.0535714 330.47308,98.0535714 L330.47308,98.0535714 Z M330.47308,100.598214 C331.407237,100.598214 332.167696,99.836942 332.167696,98.9017857 C332.167696,97.9666295 331.407237,97.2053571 330.47308,97.2053571 C329.538923,97.2053571 328.778464,97.9666295 328.778464,98.9017857 C328.778464,99.836942 329.538923,100.598214 330.47308,100.598214 L330.47308,100.598214 Z M337.251545,99.75 C337.251545,100.683036 336.488967,101.446429 335.556929,101.446429 L325.389232,101.446429 C324.457193,101.446429 323.694616,100.683036 323.694616,99.75 L323.694616,96.3571429 L337.251545,96.3571429 L337.251545,99.75 L337.251545,99.75 Z M323.694616,82.7857143 L337.251545,82.7857143 L337.251545,95.5089286 L323.694616,95.5089286 L323.694616,82.7857143 Z M323.694616,79.3928571 C323.694616,78.4598214 324.457193,77.6964286 325.389232,77.6964286 L335.556929,77.6964286 C336.488967,77.6964286 337.251545,78.4598214 337.251545,79.3928571 L337.251545,81.9375 L323.694616,81.9375 L323.694616,79.3928571 L323.694616,79.3928571 Z M335.556929,76 L325.389232,76 C323.520918,76 322,77.5224386 322,79.3928571 L322,99.75 C322,101.620312 323.520918,103.142857 325.389232,103.142857 L335.556929,103.142857 C337.425243,103.142857 338.946161,101.620312 338.946161,99.75 L338.946161,79.3928571 C338.946161,77.5224386 337.425243,76 335.556929,76 L335.556929,76 Z" id="Fill-267" fill="#F1F3F5" sketch:type="MSShapeGroup"></path>
        <path d="M149.862312,160.598214 C150.33045,160.598214 150.70962,160.218638 150.70962,159.75 C150.70962,159.281362 150.33045,158.901786 149.862312,158.901786 C149.394175,158.901786 149.015004,159.281362 149.015004,159.75 C149.015004,160.218638 149.394175,160.598214 149.862312,160.598214 L149.862312,160.598214 Z M158.335393,136 L141.389232,136 C139.520918,136 138,137.522439 138,139.392857 L138,159.75 C138,161.620312 139.520918,163.142857 141.389232,163.142857 L158.335393,163.142857 C160.203707,163.142857 161.724625,161.620312 161.724625,159.75 L161.724625,139.392857 C161.724625,137.522439 160.203707,136 158.335393,136 L158.335393,136 Z M158.335393,137.696429 C159.267432,137.696429 160.030009,138.459821 160.030009,139.392857 L160.030009,159.75 C160.030009,160.683036 159.267432,161.446429 158.335393,161.446429 L141.389232,161.446429 C140.457193,161.446429 139.694616,160.683036 139.694616,159.75 L139.694616,139.392857 C139.694616,138.459821 140.457193,137.696429 141.389232,137.696429 L158.335393,137.696429 L158.335393,137.696429 Z M156.640777,140.241071 L143.083848,140.241071 C142.615711,140.241071 142.23654,140.620647 142.23654,141.089286 L142.23654,157.205357 C142.23654,157.673996 142.615711,158.053571 143.083848,158.053571 L156.640777,158.053571 C157.108914,158.053571 157.488085,157.673996 157.488085,157.205357 L157.488085,141.089286 C157.488085,140.620647 157.108914,140.241071 156.640777,140.241071 L156.640777,140.241071 Z M143.083848,141.089286 L156.640777,141.089286 L156.640777,157.205357 L143.083848,157.205357 L143.083848,141.089286 Z" id="Fill-268" fill="#F1F3F5" sketch:type="MSShapeGroup"></path>
        <path d="M158.877317,262.785714 L151.24932,262.785714 C151.782171,262.076395 152.098853,261.195312 152.098853,260.241071 C152.098853,259.28683 151.782171,258.405748 151.24932,257.696429 L158.877317,257.696429 C160.278553,257.696429 161.419241,258.838337 161.419241,260.241071 C161.419241,261.643806 160.278553,262.785714 158.877317,262.785714 L158.877317,262.785714 Z M156.335393,279.75 C156.335393,280.685156 155.574828,281.446429 154.640777,281.446429 L144.017652,281.446429 C144.306796,280.947042 144.47308,280.367076 144.47308,279.75 L144.47308,261.089286 C144.47308,259.223108 145.998235,257.696429 147.862312,257.696429 C149.263548,257.696429 150.404237,258.838337 150.404237,260.241071 C150.404237,261.643806 149.263548,262.785714 147.862312,262.785714 C147.394175,262.785714 147.015004,263.16529 147.015004,263.633929 C147.015004,264.102461 147.394175,264.482143 147.862312,264.482143 L156.335393,264.482143 L156.335393,279.75 L156.335393,279.75 Z M142.778464,279.75 C142.778464,280.685156 142.018005,281.446429 141.083848,281.446429 L140.23654,281.446429 C138.83541,281.446429 137.694616,280.304414 137.694616,278.901786 C137.694616,277.499051 138.83541,276.357143 140.23654,276.357143 L142.778464,276.357143 L142.778464,279.75 L142.778464,279.75 Z M158.877317,256 L147.862312,256 C145.058782,256 142.778464,258.282757 142.778464,261.089286 L142.778464,274.660714 L140.23654,274.660714 C137.900088,274.660714 136,276.562729 136,278.901786 C136,281.240737 137.900088,283.142857 140.23654,283.142857 L154.640777,283.142857 C156.509091,283.142857 158.030009,281.620312 158.030009,279.75 L158.030009,264.482143 L158.877317,264.482143 C161.21271,264.482143 163.113857,262.580022 163.113857,260.241071 C163.113857,257.902015 161.21271,256 158.877317,256 L158.877317,256 Z" id="Fill-315" fill="#F1F3F5" sketch:type="MSShapeGroup"></path>
    </g>
</svg>